<svg width="51" height="50" viewBox="0 0 51 50" fill="none" xmlns="http://www.w3.org/2000/svg">
<path d="M8.45605 17.5435L25.4996 6.89124L42.5432 17.5435V34.5869L25.4996 45.2392L8.45605 34.5869V17.5435Z" fill="white"/>
<path d="M14.8481 2.63039L6.32626 1.56519L2.06543 6.89123V13.2827L18.0438 5.82602L14.8481 2.63039Z" fill="white"/>
<path d="M36.1527 2.63039L44.6745 1.56519L48.9354 6.89123V13.2827L32.957 5.82602L36.1527 2.63039Z" fill="white"/>
<path d="M42.5432 17.5436V34.5869L25.4996 45.2392L8.45605 34.5869L42.5432 17.5436Z" fill="#BBD8FF"/>
<path d="M25.5 1.56519V6.89123" stroke="#092F63" stroke-width="2.08333" stroke-miterlimit="10" stroke-linecap="round" stroke-linejoin="round"/>
<path d="M21.2383 1.56519H29.7599" stroke="#092F63" stroke-width="2.08333" stroke-miterlimit="10" stroke-linecap="round" stroke-linejoin="round"/>
<path d="M25.5 16.4784V26.0653L30.826 29.2609" stroke="#092F63" stroke-width="2.08333" stroke-miterlimit="10" stroke-linecap="round" stroke-linejoin="round"/>
<path d="M8.45605 17.5435L25.4996 6.89124L42.5432 17.5435V34.5869L25.4996 45.2391L8.45605 34.5869V17.5435Z" stroke="#092F63" stroke-width="2.08333" stroke-miterlimit="10" stroke-linecap="round" stroke-linejoin="round"/>
<path d="M14.8481 2.63039L6.32626 1.56519L2.06543 6.89123V13.2827L18.0438 5.82602L14.8481 2.63039Z" stroke="#092F63" stroke-width="2.08333" stroke-miterlimit="10" stroke-linecap="round" stroke-linejoin="round"/>
<path d="M36.1527 2.63039L44.6745 1.56519L48.9354 6.89123V13.2827L32.957 5.82602L36.1527 2.63039Z" stroke="#092F63" stroke-width="2.08333" stroke-miterlimit="10" stroke-linecap="round" stroke-linejoin="round"/>
<path d="M17.6183 40.3391L9.52246 48.4347" stroke="#092F63" stroke-width="2.08333" stroke-miterlimit="10" stroke-linecap="round" stroke-linejoin="round"/>
<path d="M33.3828 40.3391L41.4784 48.4347" stroke="#092F63" stroke-width="2.08333" stroke-miterlimit="10" stroke-linecap="round" stroke-linejoin="round"/>
</svg>
