<svg width="94" height="92" viewBox="0 0 94 92" fill="none" xmlns="http://www.w3.org/2000/svg">
<path fill-rule="evenodd" clip-rule="evenodd" d="M36.1081 64.8013C39.0655 61.0578 45.7336 53.9035 47.3007 49.9325C50.7837 41.1094 43.1839 43.212 35.4597 45.2475C28.5984 47.0553 31.3642 40.8179 33.9089 36.1837C35.8117 32.717 43.7472 25.5152 47.8509 22.3351C43.5327 9.71445 39.6026 2.10449 39.6026 2.10449C39.6026 2.10449 31.9504 24.2772 26.3943 38.2421C12.1739 44.147 0.1875 49.5378 0.1875 49.5378C0.1875 49.5378 5.74497 52.1808 21.837 54.8696C16.2105 70.6489 9.96817 91.2998 9.96817 91.2998L36.1081 64.8013Z" fill="url(#paint0_linear_523_182)"/>
<path fill-rule="evenodd" clip-rule="evenodd" d="M50.4582 22.6298C48.9729 23.4175 47.5958 24.3918 46.3578 25.5299C41.437 30.061 35.6729 35.9233 35.7548 39.3032C35.912 45.796 49.6034 37.0319 52.5084 44.2584C53.9478 47.8348 46.7836 56.3172 42.2181 61.22C51.9483 71.9884 65.8625 82.4211 78.7433 91.6879C78.7433 91.6879 72.9775 78.0178 57.7943 46.2562C66.1441 37.0369 72.578 28.412 77.484 22.0321C88.5358 7.66196 93.4909 0.84375 93.4909 0.84375C93.4909 0.84375 68.7904 12.9504 50.4582 22.6298Z" fill="#003D76"/>
<defs>
<linearGradient id="paint0_linear_523_182" x1="61.8027" y1="35.3125" x2="4.22533" y2="48.5676" gradientUnits="userSpaceOnUse">
<stop stop-color="#46ADFF"/>
<stop offset="1" stop-color="#0084DA"/>
</linearGradient>
</defs>
</svg>
