<svg width="32" height="32" viewBox="0 0 32 32" fill="none" xmlns="http://www.w3.org/2000/svg">
<path d="M25.0917 0.799805H6.90872C6.56036 0.799805 6.27539 1.08481 6.27539 1.43314V3.55483C6.27539 3.90315 6.56036 4.18816 6.90872 4.18816H7.85238V8.48848C7.85238 11.8642 9.91706 14.7648 12.8494 15.9998C9.91706 17.2285 7.85238 20.1355 7.85238 23.5111V27.8115H6.90872C6.56036 27.8115 6.27539 28.0965 6.27539 28.4448V30.5665C6.27539 30.9148 6.56036 31.1998 6.90872 31.1998H25.0917C25.4464 31.1998 25.725 30.9148 25.725 30.5665V28.4448C25.725 28.0965 25.4464 27.8115 25.0917 27.8115H24.148V23.5111C24.148 20.1355 22.0834 17.2348 19.1447 15.9998C22.0834 14.7648 24.148 11.8642 24.148 8.48848V4.18816H25.0917C25.4464 4.18816 25.725 3.90315 25.725 3.55483V1.43314C25.725 1.08481 25.4464 0.799805 25.0917 0.799805ZM22.8814 23.5111V27.8115H9.11905V23.5111C9.11905 19.7175 12.2034 16.6331 15.997 16.6331C19.7907 16.6331 22.8814 19.7175 22.8814 23.5111ZM22.8814 8.48848C22.8814 12.2821 19.797 15.3665 16.0034 15.3665C12.2034 15.3665 9.11905 12.2821 9.11905 8.48848V4.18816H22.8814V8.48848Z" fill="url(#paint0_linear_1918_453)"/>
<path d="M22.8256 10.5889C21.9488 13.5457 19.1936 15.6897 16 15.6897C12.8064 15.6897 10.0512 13.5457 9.16797 10.5889H22.8256Z" fill="url(#paint1_linear_1918_453)"/>
<path d="M23.155 27.8207C23.1614 28.0384 23.0814 28.256 22.9278 28.4096C22.7742 28.5728 22.563 28.6624 22.3454 28.6624H9.65418C9.43659 28.6624 9.21579 28.5728 9.07178 28.4096C8.91819 28.256 8.83819 28.0384 8.8446 27.8207C8.93909 25.4518 10.1637 23.4001 11.9862 22.1704C13.9136 20.87 15.0334 18.6658 15.0334 16.3408V14.0928H16.9662V16.3481C16.9662 18.672 18.0848 20.8755 20.0107 22.1759C21.8314 23.4054 23.054 25.4538 23.155 27.8207Z" fill="url(#paint2_linear_1918_453)"/>
<defs>
<linearGradient id="paint0_linear_1918_453" x1="-0.0154693" y1="-1.55284" x2="29.4296" y2="30.716" gradientUnits="userSpaceOnUse">
<stop stop-color="#97E0FF"/>
<stop offset="1" stop-color="#1075FF"/>
</linearGradient>
<linearGradient id="paint1_linear_1918_453" x1="2.41564" y1="-3.7714" x2="31.8611" y2="28.4974" gradientUnits="userSpaceOnUse">
<stop stop-color="#97E0FF"/>
<stop offset="1" stop-color="#1075FF"/>
</linearGradient>
<linearGradient id="paint2_linear_1918_453" x1="-4.25813" y1="2.31804" x2="25.1873" y2="34.5868" gradientUnits="userSpaceOnUse">
<stop stop-color="#97E0FF"/>
<stop offset="1" stop-color="#1075FF"/>
</linearGradient>
</defs>
</svg>
